<?xml version="1.0" encoding="UTF-8"?>
<svg id="Layer_2" data-name="Layer 2" xmlns="http://www.w3.org/2000/svg" viewBox="0 0 201.9264 111.9304">
  <defs>
    <style>
      .cls-1 {
        fill: #fff;
      }
    </style>
  </defs>
  <g id="Layer_1-2" data-name="Layer 1">
    <g>
      <path class="cls-1" d="m17.9434,35.638H4.7183v11.7954H0v8.1494h4.7183v17.8003c0,8.7217,4.5034,11.2236,13.3682,11.2236,2.4302,0,4.5752-.3574,6.6479-.8579v-9.9365c-4.2178.2856-6.791.2144-6.791-3.4316v-14.7979h6.9341v-8.1494h-6.9341v-11.7954Z"/>
      <path class="cls-1" d="m41.4644,52.9378h-.2144v-5.5044h-12.8677v36.4585h13.5112v-14.9409c0-8.2212,4.6465-11.7954,12.5815-10.437h.2861v-11.5098c-.4292-.2144-1.144-.3574-2.2163-.3574-4.6465,0-8.1494,1.7158-11.0806,6.291Z"/>
      <path class="cls-1" d="m89.0054,51.1507c-3.3599-3.0742-7.7207-4.9326-13.4395-4.9326-11.5098,0-19.4448,8.3638-19.4448,19.373,0,11.1519,8.0068,19.3018,19.9453,19.3018,4.6465,0,8.2925-.9297,11.6523-3.0742,3.5742-2.2876,6.1479-5.5044,6.9341-8.793h-13.082c-1.001,1.7871-2.7168,2.7168-5.0757,2.7168-4.0747,0-6.3623-2.5737-7.1489-6.7915h26.0215c.1431-7.2202-1.9302-13.7256-6.3623-17.8003Zm-19.6592,10.6514c.7148-4.0029,2.7881-6.5049,6.5054-6.5049,3.2173,0,5.5049,2.4302,6.0767,6.5049h-12.582Z"/>
      <path class="cls-1" d="m145.4438,59.1198c-2.5331-7.2739-9.9715-11.9979-18.6298-10.1956-1.7509.3644-3.4227,1.1082-5.3693,1.7557-.5963-1.4216-.9899-2.7675-1.688-3.9305-1.0904-1.8165-.468-3.0416.6887-4.6148,2.7367-3.7223,5.7344-7.4116,7.6158-11.5714,4.1458-9.1664-3.2788-26.0477-12.7073-29.9313-3.7015-1.5247-6.9149-.2563-8.6208,3.4338-1.5883,3.4356-1.7934,7.1528-.9501,10.6633,1.5352,6.3906,3.5089,12.6836,5.5201,18.9465.4902,1.5263.4294,2.4163-.6186,3.6232-4.5166,5.2012-9.1675,10.3232-12.0837,16.6893-2.8854,6.2988-4.2821,12.7912-2.2893,19.6373,2.3184,7.9647,9.8001,13.3127,19.3323,14.0528,5.1199.3975,10.1039-.1458,15.4792-2.1022.4568,3.8672.8757,7.4141,1.2947,10.9611l-.6877.1705c-2.8509-3.0908-6.3949-4.4189-10.5268-4.2463-5.3866.225-9.5084,3.8821-9.9586,8.832-.4251,4.6733,3.3745,9.2722,8.5169,10.3089,8.1832,1.6497,15.089-3.0433,16.7056-11.2775.9921-5.0532.202-9.9775-.9985-14.8542-.3499-1.4213-.16-2.1738,1.0679-3.0547,4.2692-3.0627,7.3625-7.0081,8.9073-12.0118v14.4885h13.8691v-51.1133h-13.8691v25.3407ZM111.5626,14.8172c.3282-3.7264,2.4805-6.4601,5.1755-6.5247,2.7481-.0659,5.3123,2.4875,5.7738,6.032.2012,1.5444.2532,3.2292-.1479,4.709-1.3487,4.9752-4.3872,9.0346-7.6963,13.592-1.8836-6.2537-3.632-11.8246-3.105-17.8083Zm16.2006,67.8425c-12.8052,3.6213-23.5109-6.5052-20.3843-19.4484,1.4542-6.02,4.8641-11.0488,8.9445-16.0104.5986,1.4606.9903,2.7064,1.6024,3.8325.6792,1.2494.3279,1.9659-.6419,2.9293-4.9764,4.944-6.8549,10.8397-4.7591,17.6726.4963,1.6182,1.6183,3.0446,2.8057,4.4344-.3718-4.4573-.3902-8.7172,2.0497-12.5123.9478-1.474,2.3075-2.6832,3.7921-4.3676,1.1683,2.8438,2.1781,5.1377,3.0586,7.4801,1.6816,4.4738,3.2161,9.0043,4.9659,13.4506.6647,1.689.0159,2.1293-1.4336,2.5392Zm6.1614-3.3858c-3.0863-7.1258-6.162-14.2272-9.2343-21.3209,3.9969-2.0009,10.382.1686,13.0825,5.353,2.8143,5.4028,1.2931,11.9161-3.8481,15.9679Z"/>
      <path class="cls-1" d="m195.5571,52.1512c-3.3594-3.0742-7.7207-4.9326-13.4395-4.9326-11.5098,0-19.4443,8.3638-19.4443,19.373,0,11.1519,8.0068,19.3018,19.9453,19.3018,4.6465,0,8.292-.9297,11.6523-3.0742,3.5742-2.2876,6.1475-5.5044,6.9336-8.793h-13.082c-1.001,1.7871-2.7168,2.7168-5.0752,2.7168-4.0752,0-6.3623-2.5737-7.1494-6.7915h26.0215c.1436-7.2202-1.9297-13.7256-6.3623-17.8003Zm-19.6592,10.6514c.7148-4.0029,2.7881-6.5049,6.5059-6.5049,3.2168,0,5.5049,2.4302,6.0762,6.5049h-12.582Z"/>
    </g>
  </g>
</svg>