<?xml version="1.0" encoding="UTF-8"?>
<svg id="Layer_2" data-name="Layer 2" xmlns="http://www.w3.org/2000/svg" viewBox="0 0 398.6294 274.7642">
  <defs>
    <style>
      .cls-1 {
        fill: #fff;
      }
    </style>
  </defs>
  <g id="Layer_1-2" data-name="Layer 1">
    <g>
      <path class="cls-1" d="m36.1436,100.3827H9.5039v23.7598H0v16.4155h9.5039c1.0771,34.1871-10.0706,67.0748,40.3193,56.7349v-20.0156c-8.4961.5762-13.6797.4321-13.6797-6.9116v-29.8076h13.9678v-16.4155h-13.9678v-23.7598Z"/>
      <path class="cls-1" d="m83.521,135.2303h-.4321v-11.0879h-25.9194v73.4385h27.2153c.8652-20.2954-7.2756-57.9097,25.9194-51.1191v-23.1836c-10.332-2.566-20.3951,1.6823-26.7832,11.9521Z"/>
      <path class="cls-1" d="m284.6875,157.8969c-5.0413-15.8948-19.1267-28.026-38.4253-23.1737-2.0804-10.011-4.0876-19.7272-5.8405-28.6555,13.8674-13.6208,25.976-31.2522,25.7044-63.7468.0424-23.3351-7.7321-42.0471-16.0114-42.3187-10.454-.2714-22.6801,24.6912-22.2737,46.9534.0944,6.7805,2.2345,20.5323,5.357,37.8035-19.0318,19.6983-41.0244,39.8981-42.4789,66.0063-10.9708-40.586-76.1823-39.7825-77.6762,9.9523-2.8768,42.3848,64.667,54.0139,77.6143,14.9756h-26.3516c-6.7609,10.7616-23.8024,4.7751-24.6235-8.2075h51.8757c5.6746,26.528,32.8376,51.2514,65.7189,40.9798,3.3344,18.2805,5.5516,32.7084,5.5381,39.3734.1175,26.2747-34.4036,28.8751-36.0583,13.773,17.4128-.6139,16.9189-26.3783-.4824-26.4286-10.1964.5609-14.551,8.0689-14.5657,18.6076,0,21.9985,55.6216,36.1568,55.6216-7.2233.0867-5.8367-2.4233-20.6499-6.0793-39.3157,12.6151-4.562,20.1212-13.4081,23.4368-23.429v13.7581h27.9355v-102.958h-27.9355v63.274Zm-145.0054-4.8111c1.6088-16.8295,23.7126-17.8293,25.3438,0h-25.3438ZM252.5823,22.5764c4.731-.4565,8.4872,3.9354,8.4872,13.6035.3834,16.6047-11.2495,31.1058-25.1015,45.6898-6.8199-23.1592,3.3159-59.165,16.6143-59.2932Zm-51.8922,141.8845c.0017-27.9212,19.3552-39.2671,37.0231-55.8043,1.6893,8.6972,3.5135,17.8606,5.357,27.0894-24.1711,8.599-35.7712,42.2898-1.5045,57.3669-20.8868-17.7816-10.6061-38.8301,4.4536-42.4979,3.7871,18.9085,7.4856,37.5666,10.4752,53.6896-21.7894,6.2056-53.5962.143-55.8044-39.8438Zm59.657,38.2835c-3.188-16.0267-7.0541-34.4036-10.8951-52.7322,26.3263-1.9191,37.29,39.5131,10.8951,52.7322Z"/>
      <path class="cls-1" d="m319.3926,160.7176c-2.8763,42.3853,64.6672,54.0136,77.6143,14.9756h-26.3516c-6.7609,10.7615-23.802,4.7753-24.623-8.2075h52.415c4.5429-56.7728-77.378-62.5815-79.0547-6.7681Zm26.6396-7.6318c1.6075-16.8294,23.7123-17.8294,25.3428,0h-25.3428Z"/>
    </g>
  </g>
</svg>