<?xml version="1.0" encoding="utf-8"?>
<!-- Generator: Adobe Illustrator 27.5.0, SVG Export Plug-In . SVG Version: 6.00 Build 0)  -->
<svg version="1.1" id="Layer_1" xmlns="http://www.w3.org/2000/svg" xmlns:xlink="http://www.w3.org/1999/xlink" x="0px" y="0px"
	 viewBox="0 0 720 1008" style="enable-background:new 0 0 720 1008;" xml:space="preserve">
<style type="text/css">
	.st0{fill:#FFFFFF;}
</style>
<g>
	<path class="st0" d="M135.9,264.6h9.5v-23.8H172v23.8h14V281h-14v29.8c0,7.3,5.2,7.5,13.7,6.9v20c-4.2,1-8.5,1.7-13.4,1.7
		c-17.9,0-26.9-5-26.9-22.6V281h-9.5V264.6z"/>
	<path class="st0" d="M219,275.6h0.4c5.9-9.2,13-12.7,22.3-12.7c2.2,0,3.6,0.3,4.5,0.7v23.2h-0.6c-16-2.7-25.3,4.5-25.3,21V338
		h-27.2v-73.4H219V275.6z"/>
	<path class="st0" d="M248.9,301.1c0-22.2,16-39,39.2-39c11.5,0,20.3,3.7,27.1,9.9c8.9,8.2,13.1,21.3,12.8,35.9h-52.4
		c1.6,8.5,6.2,13.7,14.4,13.7c4.8,0,8.2-1.9,10.2-5.5h26.4c-1.6,6.6-6.8,13.1-14,17.7c-6.8,4.3-14.1,6.2-23.5,6.2
		C265.1,340,248.9,323.6,248.9,301.1z M275.6,293.5h25.3c-1.2-8.2-5.8-13.1-12.2-13.1C281.2,280.4,277,285.4,275.6,293.5z"/>
	<path class="st0" d="M420.6,235h27.9v103h-27.9V235z"/>
	<path class="st0" d="M455.3,301.1c0-22.2,16-39,39.2-39c11.5,0,20.3,3.7,27.1,9.9c8.9,8.2,13.1,21.3,12.8,35.9h-52.4
		c1.6,8.5,6.2,13.7,14.4,13.7c4.8,0,8.2-1.9,10.2-5.5h26.4c-1.6,6.6-6.8,13.1-14,17.7c-6.8,4.3-14.1,6.2-23.5,6.2
		C471.4,340,455.3,323.6,455.3,301.1z M481.9,293.5h25.3c-1.2-8.2-5.8-13.1-12.2-13.1C487.6,280.4,483.4,285.4,481.9,293.5z"/>
</g>
<path id="path26" class="st0" d="M386,140.4c-10.5-0.3-22.7,24.7-22.3,47c0.1,6.8,2.2,20.5,5.4,37.8c-19.7,20.4-42.6,41.3-42.6,68.7
	c-0.3,25.2,15.1,57.2,51.5,56.9c5.6,0,10.6-0.7,15.1-1.9c3.3,18.3,5.6,32.7,5.5,39.4c0.1,26.3-34.4,28.9-36.1,13.8
	c7.3-0.3,13.1-6,13.1-13.2c0-7.3-6-13.3-13.5-13.3c-4.1,0-7.8,1.8-10.3,4.6c-0.1,0.1-0.1,0.1-0.2,0.2c-0.6,0.6-1,1.3-1.5,2.1
	c-1.5,2.6-2.5,6.3-2.6,11.7c0,22,55.6,36.2,55.6-7.2c0.1-5.8-2.4-20.6-6.1-39.3c39.7-14.4,29.7-73.3-6.8-73.6c-2.8,0-5.6,0.4-8.2,1
	c-2.1-10-4.1-19.7-5.8-28.7c13.9-13.6,26-31.3,25.7-63.7C402.1,159.4,394.3,140.7,386,140.4z M388.5,163c4.7-0.5,8.5,3.9,8.5,13.6
	c0.4,16.6-11.2,31.1-25.1,45.7c-1.3-8-2.2-14.5-2.3-18.3C370,178,380.6,163.7,388.5,163z M373.6,249.1c1.7,8.7,3.5,17.9,5.4,27.1
	c-24.2,8.6-35.8,42.3-1.5,57.4c-20.9-17.8-10.6-38.8,4.5-42.5c3.8,18.9,7.5,37.6,10.5,53.7c-4.1,1.4-8.8,2.3-14.3,2.3
	c-13.8,0-41.5-8.8-41.5-42.1C336.6,276.9,355.9,265.6,373.6,249.1z M385.4,290.4c0.6,0,1.3,0,1.9,0c25.2,0,34.7,40,9,52.7
	C393.1,327.1,389.2,308.8,385.4,290.4z"/>
</svg>
